<svg width="1440" height="448" viewBox="0 0 1440 448" fill="none" xmlns="http://www.w3.org/2000/svg">
<path fill-rule="evenodd" clip-rule="evenodd" d="M0 224L34.8 253.867C68.4 283.733 136.8 343.467 205.2 350.933C274.8 358.4 343.2 313.6 411.6 268.8C480 224 548.4 179.2 616.8 141.867C685.2 104.533 754.8 74.6667 823.2 67.2C891.6 59.7333 960 74.6667 1028.4 89.6C1096.8 104.533 1165.2 119.467 1234.8 104.533C1303.2 89.6 1371.6 44.8 1405.2 22.4L1440 0V448H1405.2C1371.6 448 1303.2 448 1234.8 448C1165.2 448 1096.8 448 1028.4 448C960 448 891.6 448 823.2 448C754.8 448 685.2 448 616.8 448C548.4 448 480 448 411.6 448C343.2 448 274.8 448 205.2 448C136.8 448 68.4 448 34.8 448H0V224Z" fill="#504099"/>
</svg>
