<svg width="1440" height="275" viewBox="0 0 1440 275" fill="none" xmlns="http://www.w3.org/2000/svg">
<path fill-rule="evenodd" clip-rule="evenodd" d="M-10 94.9115L38.3333 88.9085C86.6667 82.9056 183.333 70.8997 280 46.8879C376.667 22.8761 473.333 -13.1416 570 4.86723C666.667 22.8761 763.333 94.9115 860 130.929C956.667 166.947 1053.33 166.947 1150 142.935C1246.67 118.923 1343.33 70.8997 1391.67 46.8879L1440 22.8761V275H1391.67C1343.33 275 1246.67 275 1150 275C1053.33 275 956.667 275 860 275C763.333 275 666.667 275 570 275C473.333 275 376.667 275 280 275C183.333 275 86.6667 275 38.3333 275H-10V94.9115Z" fill="#974EC3"/>
</svg>
