<svg width="1440" height="246" viewBox="0 0 1440 246" fill="none" xmlns="http://www.w3.org/2000/svg">
<path fill-rule="evenodd" clip-rule="evenodd" d="M0 254L30 224.367C60 194.733 120 135.467 180 127C240 118.533 300 160.867 360 169.333C420 177.8 480 152.4 540 156.633C600 160.867 660 194.733 720 203.2C780 211.667 840 194.733 900 160.867C960 127 1020 76.2 1080 50.8C1140 25.4 1200 25.4 1260 50.8C1320 76.2 1380 127 1410 152.4L1440 177.8V0H1410C1380 0 1320 0 1260 0C1200 0 1140 0 1080 0C1020 0 960 0 900 0C840 0 780 0 720 0C660 0 600 0 540 0C480 0 420 0 360 0C300 0 240 0 180 0C120 0 60 0 30 0H0V254Z" fill="#9A63B0"/>
</svg>
